Coordinates
version=1
nRows=15
nColumns=46
inDegrees=yes

Units are S.I. units (second, meters, Newtons, ...)
Angles are in degrees.

endheader
time	pelvis_tilt	pelvis_list	pelvis_rotation	pelvis_tx	pelvis_ty	pelvis_tz	bb_angle	bb_tx	bb_ty	bb_tz	hip_flexion_r	hip_adduction_r	hip_rotation_r	knee_angle_r	knee_angle_r_beta	ankle_angle_r	subtalar_angle_r	mtp_angle_r	crank_angle_r	hip_flexion_l	hip_adduction_l	hip_rotation_l	knee_angle_l	knee_angle_l_beta	ankle_angle_l	subtalar_angle_l	mtp_angle_l	crank_angle_l	lumbar_extension	lumbar_bending	lumbar_rotation	arm_flex_r	arm_add_r	arm_rot_r	elbow_flex_r	pro_sup_r	wrist_flex_r	wrist_dev_r	arm_flex_l	arm_add_l	arm_rot_l	elbow_flex_l	pro_sup_l	wrist_flex_l	wrist_dev_l
      7.50000000	    -10.70443373	     -9.29708555	    -10.46406885	      0.18680098	      1.05402296	     -0.26465033	      0.00000000	      0.50000000	      0.00000000	      0.25000000	     82.07867852	     10.17226002	      6.50644234	    114.45304631	      1.99758250	     11.89413876	      6.91554615	      0.00000000	      0.00000000	     33.38901674	    -18.33019930	     -8.52319641	     38.59216499	      0.67356034	    -12.35876431	     -2.91857516	      0.00000000	      0.00000000	    -68.80493386	      9.27135015	      9.82963723	     89.56104458	     -9.82640704	     37.10289957	     62.64854995	     43.26519264	      0.00000000	      0.00000000	     61.95550535	    -33.46250567	      9.55939809	     78.14978460	     44.89392110	      0.00000000	      0.00000000
      7.50500000	    -10.91397019	     -9.66403851	    -11.31204746	      0.18716757	      1.05511939	     -0.26511585	      0.00000000	      0.50000000	      0.00000000	      0.25000000	     82.25558665	     10.75725581	      6.03590190	    113.25662839	      1.97670107	     13.20350454	      7.01620904	      0.00000000	      0.00000000	     33.36334845	    -19.03245023	     -8.80993048	     39.97663333	      0.69772388	    -12.54177973	     -3.87179038	      0.00000000	      0.00000000	    -69.06339465	      9.12956090	     10.31401602	     89.57585757	     -9.46295338	     37.33385668	     62.84321800	     43.19664473	      0.00000000	      0.00000000	     61.88634330	    -33.67352821	      9.40054339	     78.07847203	     44.89135293	      0.00000000	      0.00000000
      7.51000000	    -10.99651927	    -10.01803230	    -11.66369406	      0.18689325	      1.05651685	     -0.26565293	      0.00000000	      0.50000000	      0.00000000	      0.25000000	     82.14396465	     10.93208664	      5.54123907	    111.88173209	      1.95270460	     14.53972418	      7.02080252	      0.00000000	      0.00000000	     33.52411262	    -19.43712585	     -8.48047342	     41.44185028	      0.72329674	    -12.94646981	     -4.73661116	      0.00000000	      0.00000000	    -69.39169089	      9.26429111	     10.58218470	     89.59847229	     -9.16295131	     37.53161080	     62.99554574	     43.12766789	      0.00000000	      0.00000000	     61.94615180	    -33.97383940	      9.18232073	     78.05143826	     44.88725722	      0.00000000	      0.00000000
      7.51500000	    -11.45329366	    -10.53172669	    -11.77165864	      0.18695301	      1.05720961	     -0.26627375	      0.00000000	      0.50000000	      0.00000000	      0.25000000	     82.24108086	     10.85538042	      4.70110625	    110.30737454	      1.92522687	     15.78044209	      7.13204522	      0.00000000	      0.00000000	     34.33096624	    -19.83318423	     -7.50727099	     43.14262156	      0.75298079	    -13.38076710	     -6.02621284	      0.00000000	      0.00000000	    -69.42577315	      9.88421971	     10.78365586	     89.61469320	     -8.57122224	     37.86651304	     63.15767678	     42.63904484	      0.00000000	      0.00000000	     61.27540263	    -34.62054338	      8.53148252	     78.42286399	     45.00200086	      0.00000000	      0.00000000
      7.52000000	    -11.49812453	    -10.81555226	    -12.04997596	      0.18717551	      1.05856783	     -0.26654585	      0.00000000	      0.50000000	      0.00000000	      0.25000000	     81.76941089	     10.93942027	      4.16293449	    108.60197976	      1.89546212	     17.07431875	      7.07953848	      0.00000000	      0.00000000	     34.55091855	    -20.09767914	     -7.03801354	     44.80572158	      0.78200737	    -13.63303810	     -7.10696305	      0.00000000	      0.00000000	    -69.80224330	      9.98972875	     10.90948891	     89.62817841	     -8.18074476	     38.00959714	     63.28646068	     42.48338473	      0.00000000	      0.00000000	     61.23228409	    -35.06033320	      8.15478208	     78.48809057	     45.01433400	      0.00000000	      0.00000000
      7.52500000	    -11.77731684	    -11.09402536	    -12.11898266	      0.18740026	      1.05948944	     -0.26681451	      0.00000000	      0.50000000	      0.00000000	      0.25000000	     81.43883649	     10.76416899	      3.49951670	    106.75304773	      1.86319217	     18.24780584	      7.05253785	      0.00000000	      0.00000000	     35.23879421	    -20.22406077	     -6.17534358	     46.60027087	      0.81332816	    -14.11232402	     -8.37009094	      0.00000000	      0.00000000	    -69.99669664	     10.45342014	     10.32382940	     89.64498088	     -6.58484354	     38.05075028	     63.00212941	     40.60402362	      0.00000000	      0.00000000	     59.60903244	    -36.36709750	      6.20595898	     80.08116791	     45.45501198	      0.00000000	      0.00000000
      7.53000000	    -11.76550495	    -11.30132099	    -12.21889391	      0.18771458	      1.06070904	     -0.26705361	      0.00000000	      0.50000000	      0.00000000	      0.25000000	     80.66551535	     10.62841322	      2.92559580	    104.75624311	      1.82834135	     19.41952071	      6.97765147	      0.00000000	      0.00000000	     35.58640844	    -20.27358114	     -5.46731215	     48.46349239	      0.84584751	    -14.26173150	     -9.51083994	      0.00000000	      0.00000000	    -70.32951477	     10.51143389	     10.33289079	     89.65160826	     -6.39280433	     38.08025432	     63.18829738	     40.46170873	      0.00000000	      0.00000000	     59.73426398	    -36.69672237	      6.03840078	     80.02658250	     45.45831387	      0.00000000	      0.00000000
      7.53500000	    -11.78968354	    -11.51188785	    -12.19375203	      0.18796595	      1.06166815	     -0.26706299	      0.00000000	      0.50000000	      0.00000000	      0.25000000	     79.88110995	     10.36653149	      2.29323396	    102.68065775	      1.79211556	     20.43878419	      7.07842691	      0.00000000	      0.00000000	     36.12745211	    -20.26892588	     -4.57497383	     50.44681200	      0.88046297	    -14.61279185	    -10.51084054	      0.00000000	      0.00000000	    -70.58052515	     10.70696993	     10.31160758	     89.65345628	     -6.10542081	     38.07150816	     63.33168425	     40.22432308	      0.00000000	      0.00000000	     59.61152526	    -37.04362343	      5.82831415	     80.05321761	     45.49003679	      0.00000000	      0.00000000
      7.54000000	    -11.74040817	    -11.60254182	    -12.08608059	      0.18835571	      1.06238859	     -0.26708788	      0.00000000	      0.50000000	      0.00000000	      0.25000000	     78.93098236	      9.99023832	      1.77102734	    100.54925391	      1.75491554	     21.43155823	      7.21853362	      0.00000000	      0.00000000	     36.66330486	    -20.08985890	     -3.69793024	     52.55977277	      0.91734109	    -14.72138455	    -11.49381635	      0.00000000	      0.00000000	    -70.84604554	     10.94741742	      9.63624719	     89.65894752	     -4.92393256	     37.93454150	     63.12079445	     38.38492685	      0.00000000	      0.00000000	     58.57104892	    -38.13329990	      4.61732093	     81.13623903	     45.88821354	      0.00000000	      0.00000000
      7.54500000	    -11.71596429	    -11.64714847	    -11.95736538	      0.18862350	      1.06303259	     -0.26714131	      0.00000000	      0.50000000	      0.00000000	      0.25000000	     77.93659483	      9.57383150	      1.27575545	     98.25284872	      1.71483571	     22.29777109	      7.45574553	      0.00000000	      0.00000000	     37.27433926	    -19.81783982	     -2.74819969	     54.69450255	      0.95459915	    -14.80946397	    -12.45565293	      0.00000000	      0.00000000	    -70.96099137	     11.09302774	      9.49599630	     89.65687023	     -4.79886801	     37.89598023	     63.18572470	     38.11214243	      0.00000000	      0.00000000	     58.53199359	    -38.29143320	      4.53119209	     81.03380691	     45.91185641	      0.00000000	      0.00000000
      7.55000000	    -11.53221549	    -11.51958008	    -11.95868850	      0.18901300	      1.06371659	     -0.26694996	      0.00000000	      0.50000000	      0.00000000	      0.25000000	     76.74944319	      9.23635396	      0.96193979	     95.92488696	      1.67420511	     22.93123255	      7.73644538	      0.00000000	      0.00000000	     37.67204765	    -19.49622721	     -2.14671329	     56.92041450	      0.99344864	    -14.64182476	    -13.27506000	      0.00000000	      0.00000000	    -71.12615550	     10.93965077	      9.19948306	     89.65333212	     -4.75209860	     37.86513083	     63.15786510	     38.01028593	      0.00000000	      0.00000000	     58.58950957	    -38.40369669	      4.40990052	     81.03047345	     45.91650725	      0.00000000	      0.00000000
      7.55500000	    -11.47128798	    -11.54383228	    -11.81683764	      0.18935631	      1.06412411	     -0.26678404	      0.00000000	      0.50000000	      0.00000000	      0.25000000	     75.57908678	      8.78888444	      0.39694134	     93.44326755	      1.63089268	     23.51839578	      8.25652714	      0.00000000	      0.00000000	     38.34100199	    -19.21730214	     -1.20020770	     59.21114982	      1.03342952	    -14.61781044	    -14.24292748	      0.00000000	      0.00000000	    -71.20922616	     11.01369436	      9.02583048	     89.65216564	     -4.59320968	     37.77507165	     63.10676904	     37.84472445	      0.00000000	      0.00000000	     58.45739776	    -38.60385404	      4.28997755	     81.13764150	     45.95279341	      0.00000000	      0.00000000
      7.56000000	    -11.44196243	    -11.37907640	    -11.67364737	      0.18988436	      1.06416029	     -0.26667854	      0.00000000	      0.50000000	      0.00000000	      0.25000000	     74.46220118	      8.29489027	     -0.00785863	     91.00525661	      1.58834136	     23.84956470	      8.47830477	      0.00000000	      0.00000000	     39.07314963	    -18.75706759	     -0.41025975	     61.55671215	      1.07436730	    -14.48402216	    -14.93042597	      0.00000000	      0.00000000	    -71.15306802	     11.07952765	      8.50701489	     89.64463260	     -3.97378157	     37.51510294	     62.68721741	     37.11093312	      0.00000000	      0.00000000	     57.77697545	    -38.87919746	      3.68580421	     81.62638794	     46.11105615	      0.00000000	      0.00000000
      7.56500000	    -11.03461887	    -11.19552297	    -11.28299043	      0.19011986	      1.06455715	     -0.26622652	      0.00000000	      0.50000000	      0.00000000	      0.25000000	     72.94752921	      7.66030969	     -0.47037514	     88.59307014	      1.54624077	     23.99453473	      8.62873795	      0.00000000	      0.00000000	     39.51355814	    -18.20820292	      0.38228627	     63.91850232	      1.11558832	    -14.28575097	    -15.29968297	      0.00000000	      0.00000000	    -71.40642198	     11.06647624	      8.02937296	     89.64214649	     -3.88450349	     37.39929857	     62.60523636	     36.89958509	      0.00000000	      0.00000000	     57.90166406	    -39.04966262	      3.59859948	     81.74938785	     46.15771782	      0.00000000	      0.00000000
      7.57000000	    -10.77530689	    -10.62119900	    -11.29054518	      0.19065130	      1.06500299	     -0.26526934	      0.00000000	      0.50000000	      0.00000000	      0.25000000	     71.58695906	      7.25580688	     -0.41284365	     86.12819163	      1.50322052	     23.93793821	      8.76438395	      0.00000000	      0.00000000	     39.89008754	    -17.61680637	      0.49900998	     66.09489460	      1.15357353	    -14.25300020	    -15.48765487	      0.00000000	      0.00000000	    -71.35743148	     10.56846534	      7.42068882	     89.62892373	     -3.97484170	     37.30931670	     62.59914978	     36.86862046	      0.00000000	      0.00000000	     57.81472919	    -38.91891350	      3.65191914	     81.72472590	     46.16412853	      0.00000000	      0.00000000
